<svg xmlns="http://www.w3.org/2000/svg" xmlns:xlink="http://www.w3.org/1999/xlink" width="1300" zoomAndPan="magnify" viewBox="0 0 974.88 374.999991" height="500" preserveAspectRatio="xMidYMid meet" version="1.0"><defs><g/><clipPath id="66449f1547"><path d="M 121.042969 87.535156 L 182.015625 87.535156 L 182.015625 287.605469 L 121.042969 287.605469 Z M 121.042969 87.535156 " clip-rule="nonzero"/></clipPath><clipPath id="a6383a1f0d"><path d="M 182.015625 107.859375 L 182.015625 287.472656 L 121.042969 267.148438 L 121.042969 87.535156 Z M 182.015625 107.859375 " clip-rule="nonzero"/></clipPath><clipPath id="422c65af64"><path d="M 70.066406 87.515625 L 121.050781 87.515625 L 121.050781 144.871094 L 70.066406 144.871094 Z M 70.066406 87.515625 " clip-rule="nonzero"/></clipPath><clipPath id="c747d6907f"><path d="M 70.066406 104.515625 L 70.066406 144.871094 L 121.050781 127.875 L 121.050781 87.523438 Z M 70.066406 104.515625 " clip-rule="nonzero"/></clipPath><clipPath id="b5756cd6cc"><path d="M 47.058594 136.867188 L 90.804688 136.867188 L 90.804688 256.828125 L 47.058594 256.828125 Z M 47.058594 136.867188 " clip-rule="nonzero"/></clipPath><clipPath id="e73b6a2b80"><path d="M 90.804688 151.449219 L 90.804688 256.75 L 47.058594 242.167969 L 47.058594 136.867188 Z M 90.804688 151.449219 " clip-rule="nonzero"/></clipPath><clipPath id="f3b3d3af1c"><path d="M 12.601562 136.75 L 47.066406 136.75 L 47.066406 220.753906 L 12.601562 220.753906 Z M 12.601562 136.75 " clip-rule="nonzero"/></clipPath><clipPath id="3071fcd867"><path d="M 12.601562 148.335938 L 12.601562 220.753906 L 47.066406 209.265625 L 47.066406 136.847656 Z M 12.601562 148.335938 " clip-rule="nonzero"/></clipPath></defs><g fill="#036666" fill-opacity="1"><g transform="translate(235.580607, 229.757941)"><g><path d="M 26.609375 1.53125 C 22.785156 1.53125 19.578125 -0.0546875 16.984375 -3.234375 C 14.398438 -6.421875 13.109375 -10.347656 13.109375 -15.015625 C 13.109375 -19.679688 13.703125 -27.910156 14.890625 -39.703125 C 16.078125 -51.503906 16.671875 -59.90625 16.671875 -64.90625 C 16.671875 -69.914062 16.117188 -73.820312 15.015625 -76.625 L 9.796875 -86.296875 L 10.3125 -88.203125 C 17.1875 -89.648438 25.710938 -90.375 35.890625 -90.375 C 36.742188 -87.144531 37.171875 -82.175781 37.171875 -75.46875 C 37.171875 -68.769531 36.34375 -59.035156 34.6875 -46.265625 C 33.03125 -33.492188 32.203125 -25.007812 32.203125 -20.8125 C 32.203125 -16.613281 33.515625 -14.515625 36.140625 -14.515625 C 38.773438 -14.515625 42.148438 -16.757812 46.265625 -21.25 C 50.378906 -25.75 54.300781 -31.664062 58.03125 -39 C 61.769531 -46.34375 64.0625 -53.410156 64.90625 -60.203125 L 51.421875 -68.09375 C 52.097656 -74.539062 53.664062 -79.675781 56.125 -83.5 C 58.332031 -86.894531 60.160156 -89.054688 61.609375 -89.984375 L 62.5 -90.625 C 67.675781 -90.625 71.597656 -89.265625 74.265625 -86.546875 C 76.941406 -83.835938 78.28125 -80.613281 78.28125 -76.875 C 78.28125 -67.625 75.519531 -56.804688 70 -44.421875 C 64.488281 -32.035156 57.613281 -21.28125 49.375 -12.15625 C 41.144531 -3.03125 33.554688 1.53125 26.609375 1.53125 Z M 26.609375 1.53125 "/></g></g></g><g fill="#036666" fill-opacity="1"><g transform="translate(310.932163, 229.757941)"><g><path d="M 30.171875 -48.484375 C 30.171875 -44.921875 29.023438 -38.789062 26.734375 -30.09375 C 24.441406 -21.40625 23.296875 -15.722656 23.296875 -13.046875 C 23.296875 -10.367188 23.675781 -9.03125 24.4375 -9.03125 C 24.945312 -9.03125 26.898438 -9.835938 30.296875 -11.453125 L 31.8125 -12.21875 L 33.984375 -7.765625 C 33.222656 -7.085938 32.203125 -6.238281 30.921875 -5.21875 C 29.648438 -4.195312 27.273438 -2.816406 23.796875 -1.078125 C 20.316406 0.660156 17.09375 1.53125 14.125 1.53125 C 11.15625 1.53125 8.820312 0.617188 7.125 -1.203125 C 5.425781 -3.035156 4.578125 -5.5 4.578125 -8.59375 C 4.578125 -11.6875 5.640625 -17.195312 7.765625 -25.125 C 9.890625 -33.0625 10.953125 -38.222656 10.953125 -40.609375 C 10.953125 -44.171875 9.847656 -47.519531 7.640625 -50.65625 L 6.484375 -52.1875 L 6.625 -53.84375 C 11.113281 -55.113281 18.410156 -55.75 28.515625 -55.75 C 29.617188 -54.476562 30.171875 -52.054688 30.171875 -48.484375 Z M 15.65625 -69.6875 C 13.957031 -71.34375 13.109375 -73.566406 13.109375 -76.359375 C 13.109375 -79.160156 14.273438 -81.625 16.609375 -83.75 C 18.941406 -85.875 21.632812 -86.9375 24.6875 -86.9375 C 27.75 -86.9375 30.125 -86.085938 31.8125 -84.390625 C 33.507812 -82.691406 34.359375 -80.460938 34.359375 -77.703125 C 34.359375 -74.941406 33.148438 -72.5 30.734375 -70.375 C 28.316406 -68.257812 25.625 -67.203125 22.65625 -67.203125 C 19.6875 -67.203125 17.351562 -68.03125 15.65625 -69.6875 Z M 15.65625 -69.6875 "/></g></g></g><g fill="#036666" fill-opacity="1"><g transform="translate(347.589765, 229.757941)"><g><path d="M 6.359375 0.375 L 5.46875 0.375 C 5.300781 -0.300781 5.21875 -1.847656 5.21875 -4.265625 C 5.21875 -6.679688 6.363281 -13.191406 8.65625 -23.796875 C 10.945312 -34.410156 12.09375 -40.476562 12.09375 -42 C 12.09375 -44.632812 10.90625 -47.519531 8.53125 -50.65625 L 7.375 -52.1875 L 7.515625 -53.84375 C 12.085938 -55.113281 19.425781 -55.75 29.53125 -55.75 C 30.550781 -53.539062 31.0625 -50.441406 31.0625 -46.453125 C 31.988281 -47.984375 33.9375 -50.019531 36.90625 -52.5625 C 39.875 -55.113281 42.929688 -56.390625 46.078125 -56.390625 C 50.660156 -56.390625 52.953125 -52.398438 52.953125 -44.421875 C 52.523438 -43.910156 51.953125 -43.25 51.234375 -42.4375 C 50.515625 -41.632812 49.070312 -40.507812 46.90625 -39.0625 C 44.738281 -37.625 42.640625 -36.738281 40.609375 -36.40625 C 40.515625 -36.40625 39.789062 -37.550781 38.4375 -39.84375 C 37.082031 -42.132812 36.066406 -43.28125 35.390625 -43.28125 C 33.265625 -42.507812 31.394531 -41.234375 29.78125 -39.453125 C 25.875 -21.890625 23.921875 -10.519531 23.921875 -5.34375 C 23.921875 -3.476562 23.96875 -2.164062 24.0625 -1.40625 C 21.082031 -0.21875 15.179688 0.375 6.359375 0.375 Z M 6.359375 0.375 "/></g></g></g><g fill="#036666" fill-opacity="1"><g transform="translate(395.957385, 229.757941)"><g><path d="M 43.65625 -54.859375 C 43.488281 -52.734375 42.769531 -50.269531 41.5 -47.46875 C 38.269531 -47.8125 35.210938 -47.984375 32.328125 -47.984375 L 30.03125 -47.984375 C 26.132812 -29.054688 24.1875 -17.257812 24.1875 -12.59375 C 24.1875 -10.132812 24.710938 -8.90625 25.765625 -8.90625 C 26.828125 -8.90625 29.648438 -9.96875 34.234375 -12.09375 L 36.53125 -7.890625 C 28.976562 -1.609375 21.976562 1.53125 15.53125 1.53125 C 12.5625 1.53125 10.117188 0.597656 8.203125 -1.265625 C 6.296875 -3.140625 5.34375 -5.625 5.34375 -8.71875 C 5.34375 -11.8125 5.703125 -15.3125 6.421875 -19.21875 C 7.148438 -23.125 8.148438 -27.894531 9.421875 -33.53125 C 10.691406 -39.175781 11.625 -43.738281 12.21875 -47.21875 C 9.082031 -46.96875 6.75 -46.710938 5.21875 -46.453125 C 5.050781 -47.472656 4.96875 -48.851562 4.96875 -50.59375 C 4.96875 -52.332031 5.09375 -53.753906 5.34375 -54.859375 L 13.359375 -54.859375 C 14.035156 -59.441406 14.375 -63.769531 14.375 -67.84375 L 14.25 -71.78125 L 14.25 -72.171875 C 20.875 -74.460938 27.113281 -75.609375 32.96875 -75.609375 C 33.300781 -73.910156 33.46875 -71.785156 33.46875 -69.234375 C 33.46875 -66.691406 32.75 -61.898438 31.3125 -54.859375 Z M 43.65625 -54.859375 "/></g></g></g><g fill="#036666" fill-opacity="1"><g transform="translate(435.5425, 229.757941)"><g><path d="M 4.84375 -9.609375 C 4.84375 -13.210938 5.941406 -19.40625 8.140625 -28.1875 C 10.347656 -36.96875 11.453125 -42.351562 11.453125 -44.34375 C 11.453125 -46.34375 9.925781 -49 6.875 -52.3125 L 7 -53.96875 C 12.769531 -55.15625 20.363281 -55.75 29.78125 -55.75 C 30.207031 -54.644531 30.421875 -52.648438 30.421875 -49.765625 C 30.421875 -46.878906 29.234375 -40.726562 26.859375 -31.3125 C 24.484375 -21.894531 23.296875 -16.039062 23.296875 -13.75 C 23.296875 -11.457031 24.144531 -10.3125 25.84375 -10.3125 C 28.300781 -10.3125 31.140625 -11.203125 34.359375 -12.984375 C 34.703125 -15.015625 35.550781 -18.914062 36.90625 -24.6875 C 39.96875 -38.269531 41.5 -47.988281 41.5 -53.84375 C 44.46875 -55.03125 49.8125 -55.625 57.53125 -55.625 L 59.953125 -55.625 C 59.953125 -51.632812 58.765625 -43.847656 56.390625 -32.265625 C 54.015625 -20.679688 52.828125 -13.890625 52.828125 -11.890625 C 52.828125 -9.898438 53.25 -8.90625 54.09375 -8.90625 C 54.601562 -8.90625 57.019531 -9.925781 61.34375 -11.96875 L 63.765625 -7.890625 C 56.210938 -1.609375 49.59375 1.53125 43.90625 1.53125 C 41.195312 1.53125 38.882812 0.765625 36.96875 -0.765625 C 35.0625 -2.296875 33.984375 -4.289062 33.734375 -6.75 C 26.859375 -1.144531 20.617188 1.65625 15.015625 1.65625 C 12.046875 1.65625 9.609375 0.679688 7.703125 -1.265625 C 5.796875 -3.222656 4.84375 -6.003906 4.84375 -9.609375 Z M 4.84375 -9.609375 "/></g></g></g><g fill="#036666" fill-opacity="1"><g transform="translate(501.09328, 229.757941)"><g><path d="M 39.078125 1.53125 C 34.148438 1.53125 29.054688 0.722656 23.796875 -0.890625 C 19.390625 0.210938 15.550781 0.765625 12.28125 0.765625 C 9.007812 0.765625 6.78125 0.679688 5.59375 0.515625 C 6.1875 -4.492188 8.753906 -17.203125 13.296875 -37.609375 C 17.835938 -58.015625 20.109375 -69.597656 20.109375 -72.359375 C 20.109375 -75.117188 19.535156 -77.515625 18.390625 -79.546875 C 17.242188 -81.585938 16.117188 -83.070312 15.015625 -84 L 13.234375 -85.40625 L 13.625 -87.3125 C 15.820312 -87.90625 20.335938 -88.5625 27.171875 -89.28125 C 34.003906 -90.007812 39.96875 -90.375 45.0625 -90.375 C 56.851562 -90.375 65.78125 -87.765625 71.84375 -82.546875 C 77.914062 -77.328125 80.953125 -68.863281 80.953125 -57.15625 C 80.953125 -47.5625 79.359375 -38.375 76.171875 -29.59375 C 72.992188 -20.8125 68.132812 -13.425781 61.59375 -7.4375 C 55.0625 -1.457031 47.554688 1.53125 39.078125 1.53125 Z M 48.109375 -82.34375 C 45.898438 -82.34375 43.398438 -82.09375 40.609375 -81.59375 C 39.753906 -72.59375 37.351562 -59.457031 33.40625 -42.1875 C 29.46875 -24.925781 27.15625 -13.921875 26.46875 -9.171875 C 28.507812 -8.148438 31.3125 -7.640625 34.875 -7.640625 C 38.4375 -7.640625 41.804688 -9.0625 44.984375 -11.90625 C 48.171875 -14.75 50.738281 -18.289062 52.6875 -22.53125 C 54.644531 -26.769531 56.34375 -31.519531 57.78125 -36.78125 C 60.25 -46.195312 61.484375 -54.765625 61.484375 -62.484375 C 61.484375 -70.210938 60.460938 -75.453125 58.421875 -78.203125 C 56.390625 -80.960938 52.953125 -82.34375 48.109375 -82.34375 Z M 48.109375 -82.34375 "/></g></g></g><g fill="#036666" fill-opacity="1"><g transform="translate(584.71821, 229.757941)"><g><path d="M 30.171875 -48.484375 C 30.171875 -44.921875 29.023438 -38.789062 26.734375 -30.09375 C 24.441406 -21.40625 23.296875 -15.722656 23.296875 -13.046875 C 23.296875 -10.367188 23.675781 -9.03125 24.4375 -9.03125 C 24.945312 -9.03125 26.898438 -9.835938 30.296875 -11.453125 L 31.8125 -12.21875 L 33.984375 -7.765625 C 33.222656 -7.085938 32.203125 -6.238281 30.921875 -5.21875 C 29.648438 -4.195312 27.273438 -2.816406 23.796875 -1.078125 C 20.316406 0.660156 17.09375 1.53125 14.125 1.53125 C 11.15625 1.53125 8.820312 0.617188 7.125 -1.203125 C 5.425781 -3.035156 4.578125 -5.5 4.578125 -8.59375 C 4.578125 -11.6875 5.640625 -17.195312 7.765625 -25.125 C 9.890625 -33.0625 10.953125 -38.222656 10.953125 -40.609375 C 10.953125 -44.171875 9.847656 -47.519531 7.640625 -50.65625 L 6.484375 -52.1875 L 6.625 -53.84375 C 11.113281 -55.113281 18.410156 -55.75 28.515625 -55.75 C 29.617188 -54.476562 30.171875 -52.054688 30.171875 -48.484375 Z M 15.65625 -69.6875 C 13.957031 -71.34375 13.109375 -73.566406 13.109375 -76.359375 C 13.109375 -79.160156 14.273438 -81.625 16.609375 -83.75 C 18.941406 -85.875 21.632812 -86.9375 24.6875 -86.9375 C 27.75 -86.9375 30.125 -86.085938 31.8125 -84.390625 C 33.507812 -82.691406 34.359375 -80.460938 34.359375 -77.703125 C 34.359375 -74.941406 33.148438 -72.5 30.734375 -70.375 C 28.316406 -68.257812 25.625 -67.203125 22.65625 -67.203125 C 19.6875 -67.203125 17.351562 -68.03125 15.65625 -69.6875 Z M 15.65625 -69.6875 "/></g></g></g><g fill="#036666" fill-opacity="1"><g transform="translate(621.375806, 229.757941)"><g><path d="M 19.921875 13.75 C 17.078125 15.445312 15.65625 17.097656 15.65625 18.703125 C 15.65625 20.316406 16.566406 21.125 18.390625 21.125 C 20.210938 21.125 22.269531 20.253906 24.5625 18.515625 C 26.851562 16.773438 28.765625 13.957031 30.296875 10.0625 C 26.222656 10.820312 22.765625 12.050781 19.921875 13.75 Z M 57.65625 -55.5 C 58 -55.15625 58.171875 -54.410156 58.171875 -53.265625 C 58.171875 -52.117188 58.082031 -50.890625 57.90625 -49.578125 C 57.738281 -48.265625 57.441406 -45.316406 57.015625 -40.734375 C 56.597656 -36.148438 56.175781 -32.160156 55.75 -28.765625 C 51.425781 9.421875 39.800781 28.515625 20.875 28.515625 C 17.820312 28.515625 15.039062 27.707031 12.53125 26.09375 C 10.03125 24.476562 8.78125 22.398438 8.78125 19.859375 C 8.78125 16.460938 10.859375 13.363281 15.015625 10.5625 C 19.171875 7.757812 24.769531 5.597656 31.8125 4.078125 C 31.8125 3.992188 32.066406 2.804688 32.578125 0.515625 C 33.085938 -1.773438 33.429688 -3.644531 33.609375 -5.09375 C 28.515625 -1.351562 23.738281 0.515625 19.28125 0.515625 C 14.820312 0.515625 11.171875 -1.222656 8.328125 -4.703125 C 5.492188 -8.179688 4.078125 -13.742188 4.078125 -21.390625 C 4.078125 -31.398438 6.320312 -39.734375 10.8125 -46.390625 C 15.3125 -53.054688 21.253906 -56.390625 28.640625 -56.390625 C 32.796875 -56.390625 36.910156 -55.367188 40.984375 -53.328125 C 45.304688 -54.859375 49.972656 -55.625 54.984375 -55.625 Z M 34.359375 -48.875 C 30.710938 -48.875 27.828125 -45.925781 25.703125 -40.03125 C 23.585938 -34.132812 22.53125 -27.597656 22.53125 -20.421875 C 22.53125 -13.253906 24.140625 -9.671875 27.359375 -9.671875 C 29.484375 -9.671875 31.988281 -10.476562 34.875 -12.09375 C 37.25 -26.34375 38.945312 -38.09375 39.96875 -47.34375 C 37.59375 -48.363281 35.722656 -48.875 34.359375 -48.875 Z M 34.359375 -48.875 "/></g></g></g><g fill="#036666" fill-opacity="1"><g transform="translate(682.344393, 229.757941)"><g><path d="M 30.171875 -48.484375 C 30.171875 -44.921875 29.023438 -38.789062 26.734375 -30.09375 C 24.441406 -21.40625 23.296875 -15.722656 23.296875 -13.046875 C 23.296875 -10.367188 23.675781 -9.03125 24.4375 -9.03125 C 24.945312 -9.03125 26.898438 -9.835938 30.296875 -11.453125 L 31.8125 -12.21875 L 33.984375 -7.765625 C 33.222656 -7.085938 32.203125 -6.238281 30.921875 -5.21875 C 29.648438 -4.195312 27.273438 -2.816406 23.796875 -1.078125 C 20.316406 0.660156 17.09375 1.53125 14.125 1.53125 C 11.15625 1.53125 8.820312 0.617188 7.125 -1.203125 C 5.425781 -3.035156 4.578125 -5.5 4.578125 -8.59375 C 4.578125 -11.6875 5.640625 -17.195312 7.765625 -25.125 C 9.890625 -33.0625 10.953125 -38.222656 10.953125 -40.609375 C 10.953125 -44.171875 9.847656 -47.519531 7.640625 -50.65625 L 6.484375 -52.1875 L 6.625 -53.84375 C 11.113281 -55.113281 18.410156 -55.75 28.515625 -55.75 C 29.617188 -54.476562 30.171875 -52.054688 30.171875 -48.484375 Z M 15.65625 -69.6875 C 13.957031 -71.34375 13.109375 -73.566406 13.109375 -76.359375 C 13.109375 -79.160156 14.273438 -81.625 16.609375 -83.75 C 18.941406 -85.875 21.632812 -86.9375 24.6875 -86.9375 C 27.75 -86.9375 30.125 -86.085938 31.8125 -84.390625 C 33.507812 -82.691406 34.359375 -80.460938 34.359375 -77.703125 C 34.359375 -74.941406 33.148438 -72.5 30.734375 -70.375 C 28.316406 -68.257812 25.625 -67.203125 22.65625 -67.203125 C 19.6875 -67.203125 17.351562 -68.03125 15.65625 -69.6875 Z M 15.65625 -69.6875 "/></g></g></g><g fill="#036666" fill-opacity="1"><g transform="translate(719.001988, 229.757941)"><g><path d="M 17.3125 -90.375 L 59.828125 -88.96875 L 71.78125 -89.21875 C 72.039062 -87.4375 72.171875 -85.570312 72.171875 -83.625 C 72.171875 -81.675781 71.828125 -80.273438 71.140625 -79.421875 C 70.460938 -78.578125 69.234375 -78.15625 67.453125 -78.15625 C 67.285156 -78.15625 61.304688 -78.707031 49.515625 -79.8125 C 49.171875 -75.988281 47.894531 -69.453125 45.6875 -60.203125 C 43.488281 -50.953125 41.367188 -41.066406 39.328125 -30.546875 C 37.296875 -20.023438 36.234375 -10.5625 36.140625 -2.15625 C 32.835938 -0.46875 26.050781 0.375 15.78125 0.375 L 14.890625 0.375 C 14.890625 -4.03125 17.304688 -17.175781 22.140625 -39.0625 C 26.984375 -60.957031 29.40625 -74.285156 29.40625 -79.046875 C 29.40625 -79.378906 29.316406 -79.972656 29.140625 -80.828125 L 24.0625 -80.828125 C 17.101562 -80.828125 11.753906 -79.765625 8.015625 -77.640625 C 6.066406 -80.179688 4.878906 -83.914062 4.453125 -88.84375 C 7.335938 -89.863281 11.625 -90.375 17.3125 -90.375 Z M 17.3125 -90.375 "/></g></g></g><g fill="#036666" fill-opacity="1"><g transform="translate(784.552793, 229.757941)"><g><path d="M 3.3125 -22.015625 C 3.3125 -32.628906 6.515625 -41.007812 12.921875 -47.15625 C 19.328125 -53.3125 26.601562 -56.390625 34.75 -56.390625 C 39.75 -56.390625 43.863281 -55.15625 47.09375 -52.6875 C 50.320312 -50.226562 51.9375 -46.941406 51.9375 -42.828125 C 51.9375 -38.710938 50.894531 -35.253906 48.8125 -32.453125 C 46.726562 -29.648438 44.203125 -27.488281 41.234375 -25.96875 C 35.210938 -23 29.695312 -21.128906 24.6875 -20.359375 L 21.640625 -19.984375 C 22.234375 -12.003906 25.5 -8.015625 31.4375 -8.015625 C 33.476562 -8.015625 35.640625 -8.523438 37.921875 -9.546875 C 40.210938 -10.566406 42 -11.582031 43.28125 -12.59375 L 45.1875 -14.125 L 48.234375 -10.0625 C 47.554688 -9.125 46.195312 -7.890625 44.15625 -6.359375 C 42.125 -4.835938 40.21875 -3.566406 38.4375 -2.546875 C 33.519531 0.171875 28.128906 1.53125 22.265625 1.53125 C 16.410156 1.53125 11.785156 -0.546875 8.390625 -4.703125 C 5.003906 -8.867188 3.3125 -14.640625 3.3125 -22.015625 Z M 21.515625 -26.21875 C 25.835938 -26.976562 29.269531 -28.800781 31.8125 -31.6875 C 34.363281 -34.570312 35.640625 -38.304688 35.640625 -42.890625 C 35.640625 -47.472656 34.28125 -49.765625 31.5625 -49.765625 C 28.34375 -49.765625 25.863281 -47.023438 24.125 -41.546875 C 22.382812 -36.078125 21.515625 -30.96875 21.515625 -26.21875 Z M 21.515625 -26.21875 "/></g></g></g><g fill="#036666" fill-opacity="1"><g transform="translate(837.375296, 229.757941)"><g><path d="M 33.09375 -50.015625 C 29.695312 -50.015625 26.976562 -47.191406 24.9375 -41.546875 C 22.90625 -35.910156 21.890625 -29.867188 21.890625 -23.421875 C 21.890625 -13.234375 25.03125 -8.140625 31.3125 -8.140625 C 33.34375 -8.140625 35.503906 -8.628906 37.796875 -9.609375 C 40.085938 -10.585938 41.914062 -11.539062 43.28125 -12.46875 L 45.1875 -14 L 48.109375 -10.0625 C 47.429688 -9.125 46.070312 -7.890625 44.03125 -6.359375 C 42 -4.835938 40.09375 -3.566406 38.3125 -2.546875 C 36.53125 -1.523438 34.238281 -0.59375 31.4375 0.25 C 28.632812 1.101562 25.878906 1.53125 23.171875 1.53125 C 16.546875 1.53125 11.578125 -0.628906 8.265625 -4.953125 C 4.960938 -9.285156 3.3125 -15.101562 3.3125 -22.40625 C 3.3125 -32.5 6.085938 -40.6875 11.640625 -46.96875 C 17.203125 -53.25 24.351562 -56.390625 33.09375 -56.390625 C 38.78125 -56.390625 43.296875 -55.09375 46.640625 -52.5 C 49.992188 -49.914062 51.671875 -46.734375 51.671875 -42.953125 C 51.671875 -39.179688 50.484375 -35.9375 48.109375 -33.21875 C 45.992188 -33.21875 43.535156 -33.679688 40.734375 -34.609375 C 37.929688 -35.546875 35.804688 -36.695312 34.359375 -38.0625 L 36.28125 -49.265625 C 35.507812 -49.765625 34.445312 -50.015625 33.09375 -50.015625 Z M 33.09375 -50.015625 "/></g></g></g><g fill="#036666" fill-opacity="1"><g transform="translate(889.943231, 229.757941)"><g><path d="M 18.703125 -84 C 18.703125 -86.800781 18.453125 -88.796875 17.953125 -89.984375 C 24.566406 -92.273438 30.800781 -93.421875 36.65625 -93.421875 C 37.414062 -92.660156 37.796875 -90.707031 37.796875 -87.5625 C 37.796875 -81.96875 35.421875 -69.070312 30.671875 -48.875 C 37.546875 -53.882812 43.570312 -56.390625 48.75 -56.390625 C 51.96875 -56.390625 54.40625 -55.367188 56.0625 -53.328125 C 57.71875 -51.296875 58.546875 -48.601562 58.546875 -45.25 C 58.546875 -41.894531 57.566406 -36.421875 55.609375 -28.828125 C 53.660156 -21.234375 52.6875 -16.035156 52.6875 -13.234375 C 52.6875 -10.429688 53.023438 -9.03125 53.703125 -9.03125 C 54.390625 -9.03125 56.175781 -9.796875 59.0625 -11.328125 L 60.578125 -12.09375 L 62.875 -7.640625 C 62.113281 -6.960938 61.09375 -6.113281 59.8125 -5.09375 C 58.539062 -4.070312 56.207031 -2.710938 52.8125 -1.015625 C 49.425781 0.679688 46.3125 1.53125 43.46875 1.53125 C 40.625 1.53125 38.351562 0.617188 36.65625 -1.203125 C 34.957031 -3.035156 34.109375 -5.5 34.109375 -8.59375 C 34.109375 -11.6875 35.0625 -17.328125 36.96875 -25.515625 C 38.882812 -33.703125 39.84375 -38.878906 39.84375 -41.046875 C 39.84375 -43.210938 38.953125 -44.296875 37.171875 -44.296875 C 34.960938 -44.296875 32.203125 -43.363281 28.890625 -41.5 C 24.222656 -20.957031 21.890625 -7.632812 21.890625 -1.53125 C 18.328125 -0.164062 12.257812 0.515625 3.6875 0.515625 C 3.601562 -0.929688 3.5625 -2.207031 3.5625 -3.3125 C 3.5625 -6.957031 6.082031 -19.425781 11.125 -40.71875 C 16.175781 -62.019531 18.703125 -76.445312 18.703125 -84 Z M 18.703125 -84 "/></g></g></g><g clip-path="url(#66449f1547)"><g clip-path="url(#a6383a1f0d)"><path fill="#036666" d="M 182.015625 87.535156 L 182.015625 287.367188 L 121.042969 287.367188 L 121.042969 87.535156 Z M 182.015625 87.535156 " fill-opacity="1" fill-rule="nonzero"/></g></g><g clip-path="url(#422c65af64)"><g clip-path="url(#c747d6907f)"><path fill="#14746f" d="M 70.066406 144.871094 L 70.066406 87.515625 L 121.050781 87.515625 L 121.050781 144.871094 Z M 70.066406 144.871094 " fill-opacity="1" fill-rule="nonzero"/></g></g><g clip-path="url(#b5756cd6cc)"><g clip-path="url(#e73b6a2b80)"><path fill="#036666" d="M 90.804688 136.867188 L 90.804688 256.828125 L 47.058594 256.828125 L 47.058594 136.867188 Z M 90.804688 136.867188 " fill-opacity="1" fill-rule="nonzero"/></g></g><g clip-path="url(#f3b3d3af1c)"><g clip-path="url(#3071fcd867)"><path fill="#14746f" d="M 12.601562 220.753906 L 12.601562 136.886719 L 47.066406 136.886719 L 47.066406 220.753906 Z M 12.601562 220.753906 " fill-opacity="1" fill-rule="nonzero"/></g></g></svg>