<svg xmlns="http://www.w3.org/2000/svg" xmlns:xlink="http://www.w3.org/1999/xlink" width="150" zoomAndPan="magnify" viewBox="0 0 112.5 37.5" height="50" preserveAspectRatio="xMidYMid meet" version="1.0"><defs><g/><clipPath id="3869d4f38e"><path d="M 19.417969 0.546875 L 30.058594 0.546875 L 30.058594 35.457031 L 19.417969 35.457031 Z M 19.417969 0.546875 " clip-rule="nonzero"/></clipPath><clipPath id="dc8124056b"><path d="M 30.058594 4.09375 L 30.058594 35.4375 L 19.417969 31.890625 L 19.417969 0.546875 Z M 30.058594 4.09375 " clip-rule="nonzero"/></clipPath><clipPath id="b015e662f1"><path d="M 10.519531 0.542969 L 19.417969 0.542969 L 19.417969 10.550781 L 10.519531 10.550781 Z M 10.519531 0.542969 " clip-rule="nonzero"/></clipPath><clipPath id="9a97ee920b"><path d="M 10.519531 3.507812 L 10.519531 10.550781 L 19.417969 7.585938 L 19.417969 0.542969 Z M 10.519531 3.507812 " clip-rule="nonzero"/></clipPath><clipPath id="6216fd6917"><path d="M 6.507812 9.15625 L 14.140625 9.15625 L 14.140625 30.089844 L 6.507812 30.089844 Z M 6.507812 9.15625 " clip-rule="nonzero"/></clipPath><clipPath id="edadf73f59"><path d="M 14.140625 11.699219 L 14.140625 30.074219 L 6.507812 27.53125 L 6.507812 9.15625 Z M 14.140625 11.699219 " clip-rule="nonzero"/></clipPath><clipPath id="4e23e553a8"><path d="M 0.492188 9.132812 L 6.507812 9.132812 L 6.507812 23.792969 L 0.492188 23.792969 Z M 0.492188 9.132812 " clip-rule="nonzero"/></clipPath><clipPath id="224fd5d8a1"><path d="M 0.492188 11.15625 L 0.492188 23.792969 L 6.507812 21.789062 L 6.507812 9.152344 Z M 0.492188 11.15625 " clip-rule="nonzero"/></clipPath></defs><g fill="#ffffff" fill-opacity="1"><g transform="translate(34.407174, 15.197377)"><g><path d="M 2.890625 0.171875 C 2.472656 0.171875 2.125 0 1.84375 -0.34375 C 1.5625 -0.695312 1.421875 -1.125 1.421875 -1.625 C 1.421875 -2.132812 1.484375 -3.03125 1.609375 -4.3125 C 1.742188 -5.59375 1.8125 -6.503906 1.8125 -7.046875 C 1.8125 -7.585938 1.75 -8.007812 1.625 -8.3125 L 1.0625 -9.359375 L 1.125 -9.578125 C 1.863281 -9.734375 2.785156 -9.8125 3.890625 -9.8125 C 3.984375 -9.457031 4.03125 -8.914062 4.03125 -8.1875 C 4.03125 -7.457031 3.941406 -6.398438 3.765625 -5.015625 C 3.585938 -3.628906 3.5 -2.707031 3.5 -2.25 C 3.5 -1.800781 3.640625 -1.578125 3.921875 -1.578125 C 4.203125 -1.578125 4.566406 -1.816406 5.015625 -2.296875 C 5.460938 -2.785156 5.890625 -3.425781 6.296875 -4.21875 C 6.703125 -5.019531 6.953125 -5.789062 7.046875 -6.53125 L 5.578125 -7.390625 C 5.648438 -8.085938 5.820312 -8.644531 6.09375 -9.0625 C 6.332031 -9.425781 6.53125 -9.660156 6.6875 -9.765625 L 6.78125 -9.828125 C 7.34375 -9.828125 7.769531 -9.679688 8.0625 -9.390625 C 8.351562 -9.097656 8.5 -8.75 8.5 -8.34375 C 8.5 -7.34375 8.195312 -6.164062 7.59375 -4.8125 C 7 -3.46875 6.253906 -2.300781 5.359375 -1.3125 C 4.460938 -0.320312 3.640625 0.171875 2.890625 0.171875 Z M 2.890625 0.171875 "/></g></g></g><g fill="#ffffff" fill-opacity="1"><g transform="translate(42.581682, 15.197377)"><g><path d="M 3.28125 -5.265625 C 3.28125 -4.878906 3.15625 -4.210938 2.90625 -3.265625 C 2.65625 -2.316406 2.53125 -1.695312 2.53125 -1.40625 C 2.53125 -1.125 2.570312 -0.984375 2.65625 -0.984375 C 2.707031 -0.984375 2.914062 -1.070312 3.28125 -1.25 L 3.453125 -1.328125 L 3.6875 -0.84375 C 3.601562 -0.769531 3.492188 -0.675781 3.359375 -0.5625 C 3.222656 -0.457031 2.960938 -0.304688 2.578125 -0.109375 C 2.203125 0.078125 1.851562 0.171875 1.53125 0.171875 C 1.207031 0.171875 0.953125 0.0703125 0.765625 -0.125 C 0.585938 -0.320312 0.5 -0.585938 0.5 -0.921875 C 0.5 -1.265625 0.613281 -1.863281 0.84375 -2.71875 C 1.070312 -3.582031 1.1875 -4.144531 1.1875 -4.40625 C 1.1875 -4.789062 1.066406 -5.15625 0.828125 -5.5 L 0.703125 -5.65625 L 0.71875 -5.84375 C 1.207031 -5.976562 2 -6.046875 3.09375 -6.046875 C 3.21875 -5.910156 3.28125 -5.648438 3.28125 -5.265625 Z M 1.6875 -7.5625 C 1.507812 -7.738281 1.421875 -7.976562 1.421875 -8.28125 C 1.421875 -8.59375 1.546875 -8.863281 1.796875 -9.09375 C 2.054688 -9.320312 2.347656 -9.4375 2.671875 -9.4375 C 3.003906 -9.4375 3.265625 -9.34375 3.453125 -9.15625 C 3.640625 -8.96875 3.734375 -8.722656 3.734375 -8.421875 C 3.734375 -8.128906 3.597656 -7.867188 3.328125 -7.640625 C 3.066406 -7.410156 2.773438 -7.296875 2.453125 -7.296875 C 2.128906 -7.296875 1.875 -7.382812 1.6875 -7.5625 Z M 1.6875 -7.5625 "/></g></g></g><g fill="#ffffff" fill-opacity="1"><g transform="translate(46.558539, 15.197377)"><g><path d="M 0.6875 0.046875 L 0.59375 0.046875 C 0.570312 -0.0234375 0.5625 -0.191406 0.5625 -0.453125 C 0.5625 -0.722656 0.6875 -1.429688 0.9375 -2.578125 C 1.1875 -3.734375 1.3125 -4.394531 1.3125 -4.5625 C 1.3125 -4.84375 1.179688 -5.15625 0.921875 -5.5 L 0.796875 -5.65625 L 0.8125 -5.84375 C 1.3125 -5.976562 2.109375 -6.046875 3.203125 -6.046875 C 3.316406 -5.804688 3.375 -5.472656 3.375 -5.046875 C 3.46875 -5.210938 3.675781 -5.429688 4 -5.703125 C 4.320312 -5.984375 4.65625 -6.125 5 -6.125 C 5.5 -6.125 5.75 -5.691406 5.75 -4.828125 C 5.695312 -4.765625 5.628906 -4.6875 5.546875 -4.59375 C 5.472656 -4.507812 5.316406 -4.390625 5.078125 -4.234375 C 4.847656 -4.078125 4.625 -3.984375 4.40625 -3.953125 C 4.394531 -3.953125 4.316406 -4.078125 4.171875 -4.328125 C 4.023438 -4.578125 3.914062 -4.703125 3.84375 -4.703125 C 3.613281 -4.617188 3.410156 -4.476562 3.234375 -4.28125 C 2.804688 -2.375 2.59375 -1.140625 2.59375 -0.578125 C 2.59375 -0.378906 2.597656 -0.238281 2.609375 -0.15625 C 2.285156 -0.0195312 1.644531 0.046875 0.6875 0.046875 Z M 0.6875 0.046875 "/></g></g></g><g fill="#ffffff" fill-opacity="1"><g transform="translate(51.805734, 15.197377)"><g><path d="M 4.734375 -5.953125 C 4.710938 -5.722656 4.632812 -5.457031 4.5 -5.15625 C 4.15625 -5.1875 3.828125 -5.203125 3.515625 -5.203125 L 3.265625 -5.203125 C 2.835938 -3.148438 2.625 -1.875 2.625 -1.375 C 2.625 -1.101562 2.679688 -0.96875 2.796875 -0.96875 C 2.910156 -0.96875 3.21875 -1.082031 3.71875 -1.3125 L 3.96875 -0.859375 C 3.144531 -0.171875 2.382812 0.171875 1.6875 0.171875 C 1.363281 0.171875 1.097656 0.0703125 0.890625 -0.125 C 0.679688 -0.332031 0.578125 -0.601562 0.578125 -0.9375 C 0.578125 -1.28125 0.613281 -1.660156 0.6875 -2.078125 C 0.769531 -2.503906 0.878906 -3.023438 1.015625 -3.640625 C 1.160156 -4.253906 1.265625 -4.75 1.328125 -5.125 C 0.984375 -5.09375 0.726562 -5.066406 0.5625 -5.046875 C 0.539062 -5.148438 0.53125 -5.296875 0.53125 -5.484375 C 0.53125 -5.679688 0.546875 -5.835938 0.578125 -5.953125 L 1.453125 -5.953125 C 1.523438 -6.453125 1.5625 -6.921875 1.5625 -7.359375 L 1.546875 -7.796875 L 1.546875 -7.828125 C 2.265625 -8.078125 2.941406 -8.203125 3.578125 -8.203125 C 3.609375 -8.015625 3.625 -7.78125 3.625 -7.5 C 3.625 -7.226562 3.546875 -6.710938 3.390625 -5.953125 Z M 4.734375 -5.953125 "/></g></g></g><g fill="#ffffff" fill-opacity="1"><g transform="translate(56.100176, 15.197377)"><g><path d="M 0.53125 -1.03125 C 0.53125 -1.425781 0.648438 -2.097656 0.890625 -3.046875 C 1.128906 -4.003906 1.25 -4.59375 1.25 -4.8125 C 1.25 -5.03125 1.082031 -5.316406 0.75 -5.671875 L 0.765625 -5.859375 C 1.390625 -5.984375 2.210938 -6.046875 3.234375 -6.046875 C 3.273438 -5.929688 3.296875 -5.71875 3.296875 -5.40625 C 3.296875 -5.09375 3.164062 -4.421875 2.90625 -3.390625 C 2.65625 -2.367188 2.53125 -1.734375 2.53125 -1.484375 C 2.53125 -1.242188 2.617188 -1.125 2.796875 -1.125 C 3.066406 -1.125 3.378906 -1.21875 3.734375 -1.40625 C 3.765625 -1.625 3.851562 -2.046875 4 -2.671875 C 4.332031 -4.148438 4.5 -5.207031 4.5 -5.84375 C 4.820312 -5.96875 5.40625 -6.03125 6.25 -6.03125 L 6.5 -6.03125 C 6.5 -5.601562 6.367188 -4.757812 6.109375 -3.5 C 5.859375 -2.238281 5.734375 -1.5 5.734375 -1.28125 C 5.734375 -1.070312 5.78125 -0.96875 5.875 -0.96875 C 5.925781 -0.96875 6.1875 -1.078125 6.65625 -1.296875 L 6.921875 -0.859375 C 6.097656 -0.171875 5.378906 0.171875 4.765625 0.171875 C 4.472656 0.171875 4.222656 0.0859375 4.015625 -0.078125 C 3.804688 -0.242188 3.6875 -0.460938 3.65625 -0.734375 C 2.914062 -0.128906 2.238281 0.171875 1.625 0.171875 C 1.300781 0.171875 1.035156 0.0664062 0.828125 -0.140625 C 0.628906 -0.347656 0.53125 -0.644531 0.53125 -1.03125 Z M 0.53125 -1.03125 "/></g></g></g><g fill="#ffffff" fill-opacity="1"><g transform="translate(34.407174, 28.021103)"><g><path d="M 4.234375 0.171875 C 3.703125 0.171875 3.148438 0.0820312 2.578125 -0.09375 C 2.097656 0.0195312 1.679688 0.078125 1.328125 0.078125 C 0.972656 0.078125 0.734375 0.0703125 0.609375 0.0625 C 0.671875 -0.488281 0.945312 -1.867188 1.4375 -4.078125 C 1.9375 -6.296875 2.1875 -7.550781 2.1875 -7.84375 C 2.1875 -8.144531 2.125 -8.40625 2 -8.625 C 1.875 -8.851562 1.75 -9.015625 1.625 -9.109375 L 1.4375 -9.265625 L 1.484375 -9.46875 C 1.722656 -9.539062 2.210938 -9.613281 2.953125 -9.6875 C 3.691406 -9.769531 4.335938 -9.8125 4.890625 -9.8125 C 6.171875 -9.8125 7.140625 -9.523438 7.796875 -8.953125 C 8.453125 -8.390625 8.78125 -7.472656 8.78125 -6.203125 C 8.78125 -5.160156 8.609375 -4.160156 8.265625 -3.203125 C 7.921875 -2.253906 7.394531 -1.453125 6.6875 -0.796875 C 5.976562 -0.148438 5.160156 0.171875 4.234375 0.171875 Z M 5.21875 -8.9375 C 4.976562 -8.9375 4.707031 -8.910156 4.40625 -8.859375 C 4.3125 -7.878906 4.050781 -6.453125 3.625 -4.578125 C 3.195312 -2.703125 2.945312 -1.507812 2.875 -1 C 3.09375 -0.882812 3.394531 -0.828125 3.78125 -0.828125 C 4.164062 -0.828125 4.53125 -0.976562 4.875 -1.28125 C 5.226562 -1.59375 5.507812 -1.976562 5.71875 -2.4375 C 5.925781 -2.90625 6.109375 -3.421875 6.265625 -3.984375 C 6.535156 -5.015625 6.671875 -5.945312 6.671875 -6.78125 C 6.671875 -7.613281 6.5625 -8.179688 6.34375 -8.484375 C 6.125 -8.785156 5.75 -8.9375 5.21875 -8.9375 Z M 5.21875 -8.9375 "/></g></g></g><g fill="#ffffff" fill-opacity="1"><g transform="translate(43.479211, 28.021103)"><g><path d="M 3.28125 -5.265625 C 3.28125 -4.878906 3.15625 -4.210938 2.90625 -3.265625 C 2.65625 -2.316406 2.53125 -1.695312 2.53125 -1.40625 C 2.53125 -1.125 2.570312 -0.984375 2.65625 -0.984375 C 2.707031 -0.984375 2.914062 -1.070312 3.28125 -1.25 L 3.453125 -1.328125 L 3.6875 -0.84375 C 3.601562 -0.769531 3.492188 -0.675781 3.359375 -0.5625 C 3.222656 -0.457031 2.960938 -0.304688 2.578125 -0.109375 C 2.203125 0.078125 1.851562 0.171875 1.53125 0.171875 C 1.207031 0.171875 0.953125 0.0703125 0.765625 -0.125 C 0.585938 -0.320312 0.5 -0.585938 0.5 -0.921875 C 0.5 -1.265625 0.613281 -1.863281 0.84375 -2.71875 C 1.070312 -3.582031 1.1875 -4.144531 1.1875 -4.40625 C 1.1875 -4.789062 1.066406 -5.15625 0.828125 -5.5 L 0.703125 -5.65625 L 0.71875 -5.84375 C 1.207031 -5.976562 2 -6.046875 3.09375 -6.046875 C 3.21875 -5.910156 3.28125 -5.648438 3.28125 -5.265625 Z M 1.6875 -7.5625 C 1.507812 -7.738281 1.421875 -7.976562 1.421875 -8.28125 C 1.421875 -8.59375 1.546875 -8.863281 1.796875 -9.09375 C 2.054688 -9.320312 2.347656 -9.4375 2.671875 -9.4375 C 3.003906 -9.4375 3.265625 -9.34375 3.453125 -9.15625 C 3.640625 -8.96875 3.734375 -8.722656 3.734375 -8.421875 C 3.734375 -8.128906 3.597656 -7.867188 3.328125 -7.640625 C 3.066406 -7.410156 2.773438 -7.296875 2.453125 -7.296875 C 2.128906 -7.296875 1.875 -7.382812 1.6875 -7.5625 Z M 1.6875 -7.5625 "/></g></g></g><g fill="#ffffff" fill-opacity="1"><g transform="translate(47.456068, 28.021103)"><g><path d="M 2.15625 1.484375 C 1.851562 1.671875 1.703125 1.851562 1.703125 2.03125 C 1.703125 2.207031 1.800781 2.296875 2 2.296875 C 2.195312 2.296875 2.414062 2.203125 2.65625 2.015625 C 2.90625 1.828125 3.113281 1.519531 3.28125 1.09375 C 2.84375 1.175781 2.46875 1.304688 2.15625 1.484375 Z M 6.25 -6.015625 C 6.289062 -5.984375 6.3125 -5.90625 6.3125 -5.78125 C 6.3125 -5.65625 6.300781 -5.519531 6.28125 -5.375 C 6.257812 -5.238281 6.226562 -4.921875 6.1875 -4.421875 C 6.144531 -3.921875 6.097656 -3.488281 6.046875 -3.125 C 5.578125 1.019531 4.316406 3.09375 2.265625 3.09375 C 1.929688 3.09375 1.628906 3.003906 1.359375 2.828125 C 1.085938 2.648438 0.953125 2.425781 0.953125 2.15625 C 0.953125 1.789062 1.175781 1.453125 1.625 1.140625 C 2.082031 0.835938 2.691406 0.601562 3.453125 0.4375 C 3.453125 0.425781 3.476562 0.296875 3.53125 0.046875 C 3.59375 -0.191406 3.628906 -0.390625 3.640625 -0.546875 C 3.085938 -0.140625 2.570312 0.0625 2.09375 0.0625 C 1.613281 0.0625 1.21875 -0.125 0.90625 -0.5 C 0.59375 -0.882812 0.4375 -1.492188 0.4375 -2.328125 C 0.4375 -3.410156 0.679688 -4.3125 1.171875 -5.03125 C 1.660156 -5.757812 2.304688 -6.125 3.109375 -6.125 C 3.554688 -6.125 4.003906 -6.007812 4.453125 -5.78125 C 4.921875 -5.945312 5.425781 -6.03125 5.96875 -6.03125 Z M 3.734375 -5.296875 C 3.335938 -5.296875 3.019531 -4.976562 2.78125 -4.34375 C 2.550781 -3.707031 2.4375 -3 2.4375 -2.21875 C 2.4375 -1.4375 2.613281 -1.046875 2.96875 -1.046875 C 3.195312 -1.046875 3.46875 -1.132812 3.78125 -1.3125 C 4.039062 -2.851562 4.226562 -4.128906 4.34375 -5.140625 C 4.082031 -5.242188 3.878906 -5.296875 3.734375 -5.296875 Z M 3.734375 -5.296875 "/></g></g></g><g fill="#ffffff" fill-opacity="1"><g transform="translate(54.070264, 28.021103)"><g><path d="M 3.28125 -5.265625 C 3.28125 -4.878906 3.15625 -4.210938 2.90625 -3.265625 C 2.65625 -2.316406 2.53125 -1.695312 2.53125 -1.40625 C 2.53125 -1.125 2.570312 -0.984375 2.65625 -0.984375 C 2.707031 -0.984375 2.914062 -1.070312 3.28125 -1.25 L 3.453125 -1.328125 L 3.6875 -0.84375 C 3.601562 -0.769531 3.492188 -0.675781 3.359375 -0.5625 C 3.222656 -0.457031 2.960938 -0.304688 2.578125 -0.109375 C 2.203125 0.078125 1.851562 0.171875 1.53125 0.171875 C 1.207031 0.171875 0.953125 0.0703125 0.765625 -0.125 C 0.585938 -0.320312 0.5 -0.585938 0.5 -0.921875 C 0.5 -1.265625 0.613281 -1.863281 0.84375 -2.71875 C 1.070312 -3.582031 1.1875 -4.144531 1.1875 -4.40625 C 1.1875 -4.789062 1.066406 -5.15625 0.828125 -5.5 L 0.703125 -5.65625 L 0.71875 -5.84375 C 1.207031 -5.976562 2 -6.046875 3.09375 -6.046875 C 3.21875 -5.910156 3.28125 -5.648438 3.28125 -5.265625 Z M 1.6875 -7.5625 C 1.507812 -7.738281 1.421875 -7.976562 1.421875 -8.28125 C 1.421875 -8.59375 1.546875 -8.863281 1.796875 -9.09375 C 2.054688 -9.320312 2.347656 -9.4375 2.671875 -9.4375 C 3.003906 -9.4375 3.265625 -9.34375 3.453125 -9.15625 C 3.640625 -8.96875 3.734375 -8.722656 3.734375 -8.421875 C 3.734375 -8.128906 3.597656 -7.867188 3.328125 -7.640625 C 3.066406 -7.410156 2.773438 -7.296875 2.453125 -7.296875 C 2.128906 -7.296875 1.875 -7.382812 1.6875 -7.5625 Z M 1.6875 -7.5625 "/></g></g></g><g fill="#ffffff" fill-opacity="1"><g transform="translate(58.047121, 28.021103)"><g><path d="M 4.734375 -5.953125 C 4.710938 -5.722656 4.632812 -5.457031 4.5 -5.15625 C 4.15625 -5.1875 3.828125 -5.203125 3.515625 -5.203125 L 3.265625 -5.203125 C 2.835938 -3.148438 2.625 -1.875 2.625 -1.375 C 2.625 -1.101562 2.679688 -0.96875 2.796875 -0.96875 C 2.910156 -0.96875 3.21875 -1.082031 3.71875 -1.3125 L 3.96875 -0.859375 C 3.144531 -0.171875 2.382812 0.171875 1.6875 0.171875 C 1.363281 0.171875 1.097656 0.0703125 0.890625 -0.125 C 0.679688 -0.332031 0.578125 -0.601562 0.578125 -0.9375 C 0.578125 -1.28125 0.613281 -1.660156 0.6875 -2.078125 C 0.769531 -2.503906 0.878906 -3.023438 1.015625 -3.640625 C 1.160156 -4.253906 1.265625 -4.75 1.328125 -5.125 C 0.984375 -5.09375 0.726562 -5.066406 0.5625 -5.046875 C 0.539062 -5.148438 0.53125 -5.296875 0.53125 -5.484375 C 0.53125 -5.679688 0.546875 -5.835938 0.578125 -5.953125 L 1.453125 -5.953125 C 1.523438 -6.453125 1.5625 -6.921875 1.5625 -7.359375 L 1.546875 -7.796875 L 1.546875 -7.828125 C 2.265625 -8.078125 2.941406 -8.203125 3.578125 -8.203125 C 3.609375 -8.015625 3.625 -7.78125 3.625 -7.5 C 3.625 -7.226562 3.546875 -6.710938 3.390625 -5.953125 Z M 4.734375 -5.953125 "/></g></g></g><g fill="#ffffff" fill-opacity="1"><g transform="translate(62.341563, 28.021103)"><g><path d="M 4.53125 -5.71875 C 4.550781 -5.738281 4.601562 -5.859375 4.6875 -6.078125 C 5.113281 -6.078125 5.691406 -5.945312 6.421875 -5.6875 C 6.191406 -4.925781 6.003906 -4.128906 5.859375 -3.296875 C 5.722656 -2.460938 5.65625 -1.867188 5.65625 -1.515625 C 5.65625 -1.160156 5.695312 -0.984375 5.78125 -0.984375 C 5.832031 -0.984375 6.03125 -1.070312 6.375 -1.25 L 6.546875 -1.328125 L 6.796875 -0.84375 C 6.710938 -0.769531 6.601562 -0.675781 6.46875 -0.5625 C 6.332031 -0.457031 6.082031 -0.304688 5.71875 -0.109375 C 5.351562 0.078125 5.019531 0.171875 4.71875 0.171875 C 4.15625 0.171875 3.828125 -0.0859375 3.734375 -0.609375 C 3.140625 -0.0859375 2.601562 0.171875 2.125 0.171875 C 1.65625 0.171875 1.253906 -0.0078125 0.921875 -0.375 C 0.597656 -0.75 0.4375 -1.332031 0.4375 -2.125 C 0.4375 -3.363281 0.691406 -4.335938 1.203125 -5.046875 C 1.710938 -5.765625 2.320312 -6.125 3.03125 -6.125 C 3.550781 -6.125 4.050781 -5.988281 4.53125 -5.71875 Z M 2.953125 -1.015625 C 3.171875 -1.015625 3.421875 -1.097656 3.703125 -1.265625 C 3.765625 -2.566406 3.976562 -3.851562 4.34375 -5.125 C 4.070312 -5.238281 3.835938 -5.296875 3.640625 -5.296875 C 3.316406 -5.296875 3.035156 -4.972656 2.796875 -4.328125 C 2.554688 -3.679688 2.4375 -2.96875 2.4375 -2.1875 C 2.4375 -1.40625 2.609375 -1.015625 2.953125 -1.015625 Z M 2.953125 -1.015625 "/></g></g></g><g fill="#ffffff" fill-opacity="1"><g transform="translate(69.190496, 28.021103)"><g><path d="M 1.484375 0.171875 C 1.171875 0.171875 0.910156 0.0664062 0.703125 -0.140625 C 0.492188 -0.359375 0.390625 -0.65625 0.390625 -1.03125 C 0.390625 -1.414062 0.613281 -2.640625 1.0625 -4.703125 C 1.519531 -6.765625 1.75 -8.25 1.75 -9.15625 L 1.671875 -9.765625 C 2.390625 -10.015625 3.0625 -10.140625 3.6875 -10.140625 C 3.78125 -10.003906 3.828125 -9.78125 3.828125 -9.46875 C 3.828125 -8.726562 3.59375 -7.300781 3.125 -5.1875 C 2.664062 -3.070312 2.4375 -1.84375 2.4375 -1.5 C 2.4375 -1.15625 2.476562 -0.984375 2.5625 -0.984375 L 3.515625 -1.328125 L 3.765625 -0.84375 C 3.453125 -0.59375 3.070312 -0.359375 2.625 -0.140625 C 2.1875 0.0664062 1.804688 0.171875 1.484375 0.171875 Z M 1.484375 0.171875 "/></g></g></g><g fill="#ffffff" fill-opacity="1"><g transform="translate(73.084505, 28.021103)"><g><path d="M 1.875 -9.8125 L 6.484375 -9.65625 L 7.796875 -9.6875 C 7.816406 -9.488281 7.828125 -9.28125 7.828125 -9.0625 C 7.828125 -8.851562 7.789062 -8.703125 7.71875 -8.609375 C 7.644531 -8.523438 7.515625 -8.484375 7.328125 -8.484375 C 7.304688 -8.484375 6.65625 -8.539062 5.375 -8.65625 C 5.332031 -8.238281 5.191406 -7.53125 4.953125 -6.53125 C 4.710938 -5.53125 4.484375 -4.457031 4.265625 -3.3125 C 4.046875 -2.175781 3.929688 -1.148438 3.921875 -0.234375 C 3.566406 -0.046875 2.832031 0.046875 1.71875 0.046875 L 1.609375 0.046875 C 1.609375 -0.429688 1.867188 -1.859375 2.390625 -4.234375 C 2.921875 -6.609375 3.1875 -8.054688 3.1875 -8.578125 C 3.1875 -8.617188 3.175781 -8.679688 3.15625 -8.765625 L 2.609375 -8.765625 C 1.859375 -8.765625 1.28125 -8.648438 0.875 -8.421875 C 0.65625 -8.703125 0.523438 -9.109375 0.484375 -9.640625 C 0.796875 -9.753906 1.257812 -9.8125 1.875 -9.8125 Z M 1.875 -9.8125 "/></g></g></g><g fill="#ffffff" fill-opacity="1"><g transform="translate(80.195786, 28.021103)"><g><path d="M 0.359375 -2.390625 C 0.359375 -3.535156 0.703125 -4.441406 1.390625 -5.109375 C 2.085938 -5.785156 2.878906 -6.125 3.765625 -6.125 C 4.304688 -6.125 4.753906 -5.988281 5.109375 -5.71875 C 5.460938 -5.445312 5.640625 -5.085938 5.640625 -4.640625 C 5.640625 -4.203125 5.523438 -3.828125 5.296875 -3.515625 C 5.066406 -3.210938 4.789062 -2.976562 4.46875 -2.8125 C 3.820312 -2.488281 3.222656 -2.285156 2.671875 -2.203125 L 2.34375 -2.171875 C 2.40625 -1.304688 2.757812 -0.875 3.40625 -0.875 C 3.632812 -0.875 3.867188 -0.925781 4.109375 -1.03125 C 4.359375 -1.144531 4.554688 -1.257812 4.703125 -1.375 L 4.90625 -1.53125 L 5.234375 -1.09375 C 5.160156 -0.988281 5.015625 -0.851562 4.796875 -0.6875 C 4.578125 -0.519531 4.367188 -0.382812 4.171875 -0.28125 C 3.640625 0.0195312 3.054688 0.171875 2.421875 0.171875 C 1.785156 0.171875 1.28125 -0.0507812 0.90625 -0.5 C 0.539062 -0.957031 0.359375 -1.585938 0.359375 -2.390625 Z M 2.328125 -2.84375 C 2.796875 -2.925781 3.171875 -3.125 3.453125 -3.4375 C 3.734375 -3.75 3.875 -4.15625 3.875 -4.65625 C 3.875 -5.15625 3.722656 -5.40625 3.421875 -5.40625 C 3.078125 -5.40625 2.804688 -5.109375 2.609375 -4.515625 C 2.421875 -3.921875 2.328125 -3.363281 2.328125 -2.84375 Z M 2.328125 -2.84375 "/></g></g></g><g fill="#ffffff" fill-opacity="1"><g transform="translate(85.926263, 28.021103)"><g><path d="M 3.59375 -5.421875 C 3.21875 -5.421875 2.921875 -5.113281 2.703125 -4.5 C 2.484375 -3.894531 2.375 -3.242188 2.375 -2.546875 C 2.375 -1.441406 2.710938 -0.890625 3.390625 -0.890625 C 3.617188 -0.890625 3.851562 -0.941406 4.09375 -1.046875 C 4.34375 -1.148438 4.546875 -1.253906 4.703125 -1.359375 L 4.90625 -1.515625 L 5.21875 -1.09375 C 5.144531 -0.988281 5 -0.851562 4.78125 -0.6875 C 4.5625 -0.519531 4.351562 -0.378906 4.15625 -0.265625 C 3.96875 -0.160156 3.71875 -0.0625 3.40625 0.03125 C 3.101562 0.125 2.804688 0.171875 2.515625 0.171875 C 1.796875 0.171875 1.253906 -0.0625 0.890625 -0.53125 C 0.535156 -1.007812 0.359375 -1.644531 0.359375 -2.4375 C 0.359375 -3.53125 0.660156 -4.414062 1.265625 -5.09375 C 1.867188 -5.78125 2.644531 -6.125 3.59375 -6.125 C 4.207031 -6.125 4.695312 -5.984375 5.0625 -5.703125 C 5.425781 -5.421875 5.609375 -5.070312 5.609375 -4.65625 C 5.609375 -4.25 5.476562 -3.898438 5.21875 -3.609375 C 4.988281 -3.609375 4.722656 -3.65625 4.421875 -3.75 C 4.117188 -3.851562 3.890625 -3.976562 3.734375 -4.125 L 3.9375 -5.34375 C 3.851562 -5.394531 3.738281 -5.421875 3.59375 -5.421875 Z M 3.59375 -5.421875 "/></g></g></g><g fill="#ffffff" fill-opacity="1"><g transform="translate(91.62913, 28.021103)"><g><path d="M 2.03125 -9.109375 C 2.03125 -9.421875 2.003906 -9.640625 1.953125 -9.765625 C 2.671875 -10.015625 3.347656 -10.140625 3.984375 -10.140625 C 4.066406 -10.054688 4.109375 -9.84375 4.109375 -9.5 C 4.109375 -8.894531 3.847656 -7.492188 3.328125 -5.296875 C 4.078125 -5.847656 4.734375 -6.125 5.296875 -6.125 C 5.640625 -6.125 5.898438 -6.007812 6.078125 -5.78125 C 6.265625 -5.5625 6.359375 -5.269531 6.359375 -4.90625 C 6.359375 -4.539062 6.25 -3.945312 6.03125 -3.125 C 5.820312 -2.300781 5.71875 -1.738281 5.71875 -1.4375 C 5.71875 -1.132812 5.753906 -0.984375 5.828125 -0.984375 C 5.898438 -0.984375 6.09375 -1.066406 6.40625 -1.234375 L 6.578125 -1.3125 L 6.828125 -0.828125 C 6.742188 -0.753906 6.628906 -0.660156 6.484375 -0.546875 C 6.347656 -0.441406 6.097656 -0.296875 5.734375 -0.109375 C 5.367188 0.078125 5.03125 0.171875 4.71875 0.171875 C 4.40625 0.171875 4.15625 0.0703125 3.96875 -0.125 C 3.789062 -0.320312 3.703125 -0.585938 3.703125 -0.921875 C 3.703125 -1.265625 3.804688 -1.878906 4.015625 -2.765625 C 4.222656 -3.660156 4.328125 -4.222656 4.328125 -4.453125 C 4.328125 -4.691406 4.226562 -4.8125 4.03125 -4.8125 C 3.789062 -4.8125 3.492188 -4.707031 3.140625 -4.5 C 2.628906 -2.269531 2.375 -0.828125 2.375 -0.171875 C 1.988281 -0.015625 1.332031 0.0625 0.40625 0.0625 C 0.394531 -0.09375 0.390625 -0.234375 0.390625 -0.359375 C 0.390625 -0.753906 0.660156 -2.109375 1.203125 -4.421875 C 1.753906 -6.734375 2.03125 -8.296875 2.03125 -9.109375 Z M 2.03125 -9.109375 "/></g></g></g><g clip-path="url(#3869d4f38e)"><g clip-path="url(#dc8124056b)"><path fill="#ffffff" d="M 30.058594 0.546875 L 30.058594 35.417969 L 19.417969 35.417969 L 19.417969 0.546875 Z M 30.058594 0.546875 " fill-opacity="1" fill-rule="nonzero"/></g></g><g clip-path="url(#b015e662f1)"><g clip-path="url(#9a97ee920b)"><path fill="#ffffff" d="M 10.519531 10.550781 L 10.519531 0.542969 L 19.417969 0.542969 L 19.417969 10.550781 Z M 10.519531 10.550781 " fill-opacity="1" fill-rule="nonzero"/></g></g><g clip-path="url(#6216fd6917)"><g clip-path="url(#edadf73f59)"><path fill="#ffffff" d="M 14.140625 9.15625 L 14.140625 30.089844 L 6.507812 30.089844 L 6.507812 9.15625 Z M 14.140625 9.15625 " fill-opacity="1" fill-rule="nonzero"/></g></g><g clip-path="url(#4e23e553a8)"><g clip-path="url(#224fd5d8a1)"><path fill="#ffffff" d="M 0.492188 23.792969 L 0.492188 9.15625 L 6.507812 9.15625 L 6.507812 23.792969 Z M 0.492188 23.792969 " fill-opacity="1" fill-rule="nonzero"/></g></g></svg>